<?xml version="1.0" encoding="UTF-8"?>
<!DOCTYPE svg PUBLIC "-//W3C//DTD SVG 1.1//EN" "http://www.w3.org/Graphics/SVG/1.1/DTD/svg11.dtd">
<!-- Creator: CorelDRAW 2017 -->
<svg xmlns="http://www.w3.org/2000/svg" xml:space="preserve" width="279.4mm" height="215.9mm" version="1.1" style="shape-rendering:geometricPrecision; text-rendering:geometricPrecision; image-rendering:optimizeQuality; fill-rule:evenodd; clip-rule:evenodd"
viewBox="0 0 27940 21590"
 xmlns:xlink="http://www.w3.org/1999/xlink">
 <defs>
  <style type="text/css">
   <![CDATA[
    .str0 {stroke:#FEFEFE;stroke-width:52.91}
    .fil4 {fill:#FEFEFE}
    .fil9 {fill:#FEFEFE}
    .fil2 {fill:#558BC8}
    .fil0 {fill:#3F6795}
    .fil1 {fill:#215DA2}
    .fil8 {fill:#437806}
    .fil7 {fill:#7CB51A}
    .fil6 {fill:#8CAE00}
    .fil5 {fill:#C0EE07}
    .fil3 {fill:white}
   ]]>
  </style>
    <clipPath id="id0">
     <path d="M19148 9661c26,0 53,1 79,2l0 5 -241 0c54,-4 108,-7 162,-7zm367 35c93,18 184,43 272,74 -9,25 -13,52 -13,82 0,106 95,205 284,296 14,7 26,13 34,17 165,80 279,159 340,235 62,77 92,172 92,287 0,167 -50,299 -150,397 -100,98 -235,147 -405,147 -142,0 -259,-35 -350,-103 -91,-69 -151,-167 -179,-296l217 -105c21,78 59,138 114,179 55,41 125,62 210,62 81,0 145,-24 193,-71 48,-47 71,-110 71,-190 0,-103 -82,-196 -245,-277 -23,-12 -41,-21 -53,-26 -184,-95 -307,-180 -369,-257 -61,-77 -92,-170 -92,-281 0,-62 9,-119 26,-171zm-1867 667c62,-73 130,-141 201,-205l226 1026 -253 0 -175 -821zm645 -503c87,-43 178,-80 271,-109l0 357 662 0 0 251 -662 0 0 569 662 0 0 256 -934 0 0 -1324z"/>
    </clipPath>
 </defs>
 <g id="Capa_x0020_1">
  <metadata id="CorelCorpID_0Corel-Layer"/>
  <g id="_2353634820944">
   <path class="fil0" d="M19515 9696c93,18 184,43 272,74 -9,25 -13,52 -13,82 0,106 95,205 284,296 14,7 26,13 34,17 165,80 279,159 340,235 62,77 92,172 92,287 0,167 -50,299 -150,397 -100,98 -235,147 -405,147 -142,0 -259,-35 -350,-103 -91,-69 -151,-167 -179,-296l217 -105c21,78 59,138 114,179 55,41 125,62 210,62 81,0 145,-24 193,-71 48,-47 71,-110 71,-190 0,-103 -82,-196 -245,-277 -23,-12 -41,-21 -53,-26 -184,-95 -307,-180 -369,-257 -61,-77 -92,-170 -92,-281 0,-62 9,-119 26,-171zm-1867 667c62,-73 130,-141 201,-205l226 1026 -253 0 -175 -821zm645 -503c87,-43 178,-80 271,-109l0 357 662 0 0 251 -662 0 0 569 662 0 0 256 -934 0 0 -1324z"/>
   <path class="fil1" d="M7414 12220l0 -734 113 0 0 271 343 0 0 -271 113 0 0 734 -113 0 0 -356 -343 0 0 356 -113 0zm1034 -734l112 0 0 446c0,66 14,116 44,149 29,33 73,50 130,50 57,0 101,-17 130,-50 29,-33 44,-83 44,-149l0 -446 113 0 0 457c0,99 -24,174 -71,223 -48,49 -119,74 -215,74 -96,0 -167,-25 -215,-74 -47,-49 -71,-124 -71,-223l0 -457zm1038 734l0 -734 113 0 0 734 -113 0zm808 -632l0 632 -113 0 0 -632 -185 0 0 -102 483 0 0 102 -184 0zm507 632l355 -632 -296 0 0 -102 470 0 -352 627 356 0 0 107 -534 0zm942 0l0 -734 113 0 0 734 -113 0zm583 0l0 -734 113 0 0 627 254 0 0 107 -367 0z"/>
   <path class="fil1" d="M13162 11482l7050 0c173,0 314,149 314,330l0 92c0,173 -135,315 -299,315l-7064 0 0 -738z"/>
   <g>
    <polygon class="fil2" points="18293,11185 18293,9424 19227,9424 19227,9668 18565,9668 18565,10109 19227,10109 19227,10360 18565,10360 18565,10929 19227,10929 19227,11185 "/>
    <path class="fil2" d="M7414 9424l269 0 0 1069c0,158 35,278 105,357 70,80 174,120 313,120 138,0 241,-40 311,-120 70,-80 105,-199 105,-357l0 -1069 271 0 0 1095c0,238 -57,417 -171,535 -114,118 -287,177 -517,177 -230,0 -402,-59 -515,-177 -113,-118 -170,-296 -170,-535l0 -1095z"/>
    <path class="fil2" d="M9162 11185l0 -1830 1063 1076c29,30 58,63 88,97 30,34 61,73 94,117l0 -1220 250 0 0 1830 -1084 -1096c-29,-30 -57,-61 -84,-94 -27,-33 -53,-67 -77,-103l0 1224 -250 0z"/>
    <polygon class="fil2" points="11046,11185 11046,9424 11318,9424 11318,11185 "/>
    <polygon class="fil2" points="11709,11185 11709,9424 12643,9424 12643,9668 11980,9668 11980,10106 12643,10106 12643,10357 11980,10357 11980,11185 "/>
    <path class="fil2" d="M14420 10308c0,-89 -16,-174 -46,-254 -31,-80 -75,-151 -133,-214 -57,-62 -122,-109 -196,-142 -74,-33 -153,-50 -235,-50 -82,0 -161,16 -235,49 -74,33 -140,80 -198,143 -58,62 -102,133 -133,213 -30,80 -46,165 -46,255 0,89 15,173 46,252 30,79 75,150 133,213 58,63 124,110 198,143 74,33 152,49 236,49 82,0 159,-16 232,-49 73,-33 140,-80 198,-143 58,-62 102,-133 133,-213 31,-80 46,-164 46,-252zm283 0c0,125 -22,243 -67,355 -45,112 -110,211 -195,298 -86,87 -183,154 -291,201 -108,46 -221,70 -340,70 -120,0 -235,-23 -345,-70 -109,-47 -206,-114 -289,-200 -85,-87 -150,-186 -194,-297 -44,-110 -66,-229 -66,-356 0,-126 22,-245 66,-356 44,-112 109,-211 194,-300 85,-87 182,-154 290,-199 108,-46 223,-69 344,-69 120,0 234,23 342,69 108,46 204,112 289,199 85,89 150,190 195,301 44,112 67,230 67,354z"/>
    <path class="fil2" d="M15235 10175l50 0c144,0 239,-18 287,-53 47,-35 71,-98 71,-188 0,-97 -25,-165 -76,-205 -51,-40 -145,-60 -282,-60l-50 0 0 505zm-16 222l0 788 -255 0 0 -1761 379 0c111,0 197,8 259,23 61,15 113,40 157,75 52,43 92,98 120,165 28,67 42,141 42,221 0,141 -32,251 -97,331 -65,80 -160,128 -287,144l576 801 -307 0 -557 -788 -30 0z"/>
    <path class="fil2" d="M17638 10315c-3,-14 -8,-51 -15,-113 -6,-51 -12,-94 -16,-128 -7,40 -17,80 -29,120 -12,40 -28,81 -48,123l-438 938 -438 -957c-18,-39 -34,-77 -48,-114 -13,-37 -25,-73 -35,-110 -1,37 -4,76 -9,116 -5,41 -12,83 -22,127l-179 867 -250 0 395 -1834 494 1111c7,17 19,47 35,87 16,41 34,92 57,151 16,-50 41,-114 76,-192 9,-21 16,-37 20,-48l482 -1110 404 1834 -253 0 -185 -869z"/>
    <path class="fil2" d="M19442 10832l217 -105c21,78 59,138 113,179 55,41 125,62 210,62 81,0 145,-24 193,-71 48,-47 71,-110 71,-190 0,-103 -82,-196 -245,-277 -23,-12 -41,-21 -53,-26 -184,-95 -307,-180 -369,-257 -61,-77 -92,-170 -92,-281 0,-144 46,-260 139,-349 92,-89 214,-133 364,-133 123,0 227,25 310,75 83,50 140,122 172,215l-212 116c-34,-55 -70,-96 -110,-121 -40,-26 -86,-39 -138,-39 -73,0 -131,20 -174,60 -43,40 -65,94 -65,161 0,106 95,205 284,296 14,7 26,13 34,17 165,80 279,159 340,235 62,77 92,172 92,287 0,167 -50,299 -150,397 -100,98 -235,147 -405,147 -142,0 -259,-34 -350,-103 -91,-69 -151,-167 -179,-296z"/>
   </g>
   <path class="fil3" d="M14219 12070l0 -418 65 0 0 358 145 0 0 61 -209 0zm485 0l-59 0 0 -35c-10,16 -23,27 -37,35 -14,8 -30,11 -48,11 -36,0 -65,-13 -86,-39 -21,-26 -31,-62 -31,-108 0,-43 11,-78 32,-105 21,-27 49,-40 84,-40 21,0 39,5 54,14 15,9 26,22 33,40l0 -44 59 0 0 271zm-57 -136c0,-28 -6,-50 -19,-65 -12,-16 -30,-24 -52,-24 -22,0 -40,8 -53,24 -13,16 -19,39 -19,67 0,29 6,51 18,67 12,16 30,24 52,24 21,0 38,-9 52,-25 13,-17 20,-39 20,-67zm617 -180c-18,-16 -38,-29 -58,-37 -20,-8 -42,-12 -64,-12 -43,0 -79,15 -106,44 -27,29 -41,67 -41,114 0,45 13,82 40,112 26,29 60,44 100,44 24,0 46,-4 67,-13 21,-9 42,-22 61,-40l0 77c-17,13 -36,23 -57,29 -20,7 -43,10 -66,10 -30,0 -58,-5 -84,-16 -26,-11 -48,-26 -68,-46 -19,-20 -34,-44 -45,-71 -10,-27 -16,-56 -16,-87 0,-31 5,-59 16,-86 10,-27 25,-51 45,-71 20,-21 42,-36 68,-47 25,-11 53,-16 83,-16 23,0 46,4 67,11 21,7 42,18 62,33l-4 68zm304 317l-59 0 0 -35c-10,16 -23,27 -37,35 -14,8 -30,11 -48,11 -36,0 -65,-13 -86,-39 -21,-26 -31,-62 -31,-108 0,-43 11,-78 32,-105 21,-27 49,-40 84,-40 21,0 39,5 54,14 15,9 26,22 33,40l0 -44 59 0 0 271zm-57 -136c0,-28 -6,-50 -19,-65 -12,-16 -30,-24 -52,-24 -22,0 -40,8 -53,24 -13,16 -19,39 -19,67 0,29 6,51 18,67 12,16 30,24 52,24 21,0 38,-9 52,-25 13,-17 20,-39 20,-67zm95 87l49 -28c4,14 10,24 20,31 10,7 22,11 38,11 13,0 24,-3 31,-10 8,-6 11,-15 11,-26 0,-15 -13,-27 -40,-38 -9,-3 -16,-6 -21,-9 -28,-12 -47,-24 -58,-37 -11,-12 -16,-27 -16,-45 0,-24 9,-44 27,-59 18,-15 42,-23 72,-23 20,0 37,4 51,12 14,8 25,19 31,33l-42 30c-3,-9 -8,-15 -16,-20 -8,-5 -17,-8 -27,-8 -11,0 -20,3 -27,8 -7,6 -10,13 -10,23 0,14 15,27 46,39 10,4 17,7 22,9 24,10 41,21 51,34 10,13 15,28 15,47 0,27 -9,48 -28,64 -19,15 -44,23 -77,23 -25,0 -46,-5 -63,-15 -17,-10 -30,-25 -39,-45zm495 49l-59 0 0 -35c-10,16 -23,27 -37,35 -14,8 -30,11 -48,11 -36,0 -65,-13 -86,-39 -21,-26 -31,-62 -31,-108 0,-43 11,-78 32,-105 21,-27 49,-40 84,-40 21,0 39,5 54,14 15,9 26,22 33,40l0 -44 59 0 0 271zm-57 -136c0,-28 -6,-50 -19,-65 -12,-16 -30,-24 -52,-24 -22,0 -40,8 -53,24 -13,16 -19,39 -19,67 0,29 6,51 18,67 12,16 30,24 52,24 21,0 38,-9 52,-25 13,-17 20,-39 20,-67zm478 0c0,-28 -6,-50 -19,-65 -12,-16 -30,-24 -52,-24 -22,0 -40,8 -53,24 -13,16 -19,39 -19,67 0,29 6,51 18,67 12,16 30,24 52,24 21,0 39,-9 52,-25 13,-17 20,-39 20,-67zm-2 -307l59 0 0 443 -59 0 0 -35c-10,16 -23,27 -37,35 -14,8 -30,11 -48,11 -36,0 -65,-13 -86,-39 -21,-26 -31,-62 -31,-108 0,-43 11,-78 32,-105 21,-27 49,-40 84,-40 21,0 39,5 54,14 15,9 26,22 33,40l0 -216zm374 317l-206 0c1,25 9,45 21,59 13,14 30,21 51,21 19,0 35,-4 47,-13 13,-8 24,-22 33,-41l49 29c-14,27 -32,48 -54,61 -21,13 -46,20 -75,20 -41,0 -74,-13 -99,-40 -24,-27 -37,-62 -37,-106 0,-43 13,-77 38,-105 25,-27 58,-41 97,-41 41,0 74,13 97,37 23,25 35,60 35,105l0 12zm-61 -42c-2,-19 -9,-34 -21,-44 -12,-10 -28,-15 -48,-15 -19,0 -35,5 -47,15 -12,10 -20,25 -25,45l141 0zm112 168l0 -443 59 0 0 443 -59 0zm300 -418l64 0 0 254c0,38 8,66 25,85 17,19 41,28 74,28 33,0 57,-9 74,-28 17,-19 25,-47 25,-85l0 -254 65 0 0 260c0,57 -14,99 -41,127 -27,28 -68,42 -123,42 -55,0 -95,-14 -122,-42 -27,-28 -41,-70 -41,-127l0 -260zm397 418l0 -271 55 0 0 44c12,-19 26,-32 42,-41 16,-9 35,-13 58,-13 19,0 35,3 49,10 13,6 24,16 32,28 5,7 8,16 10,26 2,10 3,27 3,52l0 164 -59 0 0 -139c0,-36 -4,-59 -12,-71 -8,-12 -23,-18 -44,-18 -14,0 -26,3 -37,8 -11,5 -19,13 -25,23 -4,7 -7,15 -9,25 -2,10 -3,26 -3,49l0 123 -59 0zm308 -388c0,-10 4,-20 11,-27 7,-8 16,-11 26,-11 10,0 19,4 26,11 7,7 10,17 10,28 0,11 -4,20 -11,28 -7,8 -16,11 -26,11 -10,0 -19,-4 -26,-12 -7,-8 -11,-17 -11,-28zm8 388l0 -271 59 0 0 271 -59 0zm138 0l0 -217 -45 0 0 -54 45 0 0 -73c0,-36 7,-62 21,-80 14,-17 36,-26 66,-26 6,0 13,1 20,1 7,1 14,2 20,5l0 56c-5,-3 -9,-5 -14,-6 -5,-1 -10,-2 -14,-2 -14,0 -24,5 -30,14 -6,9 -9,25 -9,46l0 65 62 0 0 54 -62 0 0 217 -59 0zm351 -135c0,-25 -8,-47 -23,-64 -15,-17 -34,-26 -56,-26 -22,0 -41,9 -56,26 -15,17 -23,39 -23,64 0,25 8,47 23,64 15,17 34,26 56,26 22,0 41,-9 56,-26 16,-17 23,-39 23,-64zm-221 -1c0,-20 4,-39 11,-56 7,-18 17,-33 31,-47 13,-14 28,-24 46,-31 17,-7 35,-11 54,-11 19,0 38,4 55,11 17,7 32,18 46,32 14,14 24,30 31,47 7,17 11,36 11,55 0,20 -4,39 -10,56 -7,18 -17,33 -31,47 -14,14 -30,25 -47,32 -17,7 -35,11 -54,11 -19,0 -37,-4 -54,-11 -17,-7 -33,-18 -46,-32 -14,-14 -24,-30 -31,-48 -7,-17 -11,-36 -11,-56zm391 -92c6,-18 15,-31 25,-40 10,-9 23,-13 39,-13 8,0 17,1 25,3 8,2 16,5 24,9l-21 53c-5,-4 -11,-7 -16,-8 -6,-2 -13,-3 -20,-3 -20,0 -34,8 -42,25 -9,16 -13,44 -13,83l0 119 -59 0 0 -272 59 0 0 44zm191 228l-59 0 0 -271 55 0 0 44c12,-19 25,-33 40,-41 15,-9 33,-13 53,-13 20,0 37,4 50,13 13,9 23,22 30,41 14,-19 28,-32 43,-41 15,-9 33,-13 52,-13 17,0 32,3 44,10 13,7 23,16 30,29 3,6 6,13 7,21 2,8 2,20 2,35l0 22 0 164 -59 0 0 -139c0,-36 -4,-60 -11,-72 -7,-12 -20,-17 -39,-17 -23,0 -40,8 -49,23 -10,16 -15,43 -15,82l0 123 -60 0 0 -139c0,-34 -4,-57 -12,-70 -8,-13 -21,-19 -40,-19 -12,0 -22,3 -32,8 -10,6 -17,13 -23,23 -4,6 -6,14 -8,23 -1,9 -2,26 -2,51l0 123zm662 -126l-206 0c1,25 9,45 21,59 13,14 30,21 51,21 19,0 35,-4 47,-13 13,-8 24,-22 33,-41l49 29c-14,27 -32,48 -54,61 -21,13 -46,20 -75,20 -41,0 -74,-13 -99,-40 -24,-27 -37,-62 -37,-106 0,-43 13,-77 38,-105 25,-27 58,-41 97,-41 41,0 74,13 97,37 23,25 35,60 35,105l0 12zm-61 -42c-2,-19 -9,-34 -21,-44 -12,-10 -28,-15 -48,-15 -19,0 -35,5 -47,15 -12,10 -20,25 -25,45l141 0z"/>
   <g>
    <path class="fil4 str0" d="M14047 10079c1,-1 2,-3 3,-4 33,-41 75,-73 124,-90 96,-32 209,0 308,114 5,6 7,13 7,20 0,1 0,2 -1,4 134,4 270,34 395,75 11,3 18,14 18,25 0,2 0,4 -1,6 -3,11 -11,19 -21,20 -2,0 -4,0 -6,0 -130,-16 -262,-26 -391,-2 -49,9 -96,25 -140,48 6,6 8,15 6,24 -50,235 -135,486 -317,643 -177,153 -404,184 -626,171 -12,-1 -22,-10 -24,-23 -1,-13 6,-25 18,-29 19,-6 37,-12 56,-18 -1,0 -3,0 -4,0 -4,0 -8,0 -12,-2 -6,-3 -12,-8 -14,-16 -2,-5 -2,-10 -1,-15 1,-6 5,-12 10,-16 97,-74 186,-149 254,-254 31,-48 56,-97 80,-149 21,-46 40,-94 64,-139 41,-81 90,-141 152,-190 -1,-1 -3,-1 -4,-2 -9,-6 -13,-17 -10,-28 16,-71 44,-129 79,-174zm110 376c-4,5 -7,9 -11,14 4,-5 7,-9 11,-14zm-236 -338c9,56 15,112 19,168 0,3 0,6 1,9 0,1 0,1 0,2 0,10 -5,19 -14,24 -9,5 -20,3 -28,-4 -15,-14 -29,-29 -42,-45 0,0 0,0 0,0 0,1 1,2 1,2 2,4 3,8 3,12 0,7 -3,14 -8,19 -8,8 -20,10 -30,5 -11,-6 -22,-13 -33,-20 15,19 29,39 42,60 0,0 0,0 0,0 3,5 5,10 5,15 0,5 -1,10 -4,15 -6,9 -16,14 -26,11 -92,-22 -181,-56 -265,-100 15,9 31,18 46,27 62,35 126,66 191,93 10,4 20,8 30,12 0,0 0,0 0,0 11,4 17,15 16,27 -1,12 -9,22 -21,24 0,0 -1,0 -1,0 -177,32 -334,9 -471,-55 -25,-11 -49,-24 -73,-39 -123,-74 -224,-180 -305,-302 0,0 -1,-1 -1,-1 -59,-89 -109,-188 -150,-294 -34,-89 -63,-180 -86,-273 -3,-11 1,-22 10,-29 9,-6 20,-6 29,1 122,96 244,192 372,280 168,115 347,219 500,355 -83,-155 -68,-352 10,-539 3,-8 10,-14 19,-16 9,-2 17,1 23,8 136,151 206,344 239,545z"/>
    <g>
     <path class="fil5" d="M12744 9506c122,95 242,191 373,281 247,170 524,317 696,578 -278,-66 -525,-249 -759,-478 193,250 440,439 746,561 -477,87 -804,-239 -972,-673 -37,-95 -64,-184 -85,-269z"/>
     <path class="fil6" d="M13643 10165c63,59 121,125 171,200 -163,-39 -316,-118 -461,-223 97,14 194,22 290,23zm-361 -34c149,133 322,239 520,317 -363,66 -639,-106 -824,-384 102,26 203,49 304,66z"/>
     <path class="fil7" d="M13664 9591c-109,263 -94,548 172,696 -70,-141 -115,-294 -140,-457 53,184 109,364 219,466 -22,-326 -112,-551 -251,-705z"/>
     <path class="fil8" d="M13675 10142c38,56 91,105 162,144 -34,-69 -62,-140 -85,-214 -25,28 -50,51 -77,69zm93 -89c37,98 83,183 147,243 -9,-141 -32,-263 -65,-369 -25,47 -53,90 -82,126z"/>
     <path class="fil1" d="M13446 11038c159,-11 345,-144 449,-268 126,-150 206,-329 361,-450 61,-48 134,-81 220,-98 133,-25 266,-14 399,2 -137,-36 -276,-71 -477,-58 -175,26 -323,116 -445,266 -75,126 -150,252 -225,378 -82,105 -178,176 -282,228z"/>
     <path class="fil2" d="M13446 11038c95,-72 188,-149 261,-260 147,-224 118,-399 414,-551 199,-103 452,-100 754,-3 -191,-44 -381,-81 -559,-24 -394,126 -407,676 -870,838z"/>
     <path class="fil2" d="M13405 11108c106,-34 212,-72 313,-133 231,-140 378,-452 604,-660 -115,544 -357,827 -917,793z"/>
     <path class="fil1" d="M13992 10260c147,-105 303,-156 470,-142 -178,-206 -408,-129 -470,142z"/>
     <path class="fil2" d="M14363 10117c33,-2 66,-2 100,1 -133,-154 -294,-150 -394,-25 103,-11 201,-2 294,25z"/>
    </g>
   </g>
   <path class="fil3" d="M13162 11482l550 0c69,106 110,235 110,373 0,135 -38,260 -104,364l-556 0 0 -738z"/>
   <path class="fil1" d="M13162 11482l483 0c77,103 123,232 123,373 0,137 -43,263 -116,364l-490 0 0 -738z"/>
   <path class="fil9" d="M19148 9599c26,0 53,1 79,2l0 67 -596 0c165,-45 339,-68 518,-68zm391 39c95,19 188,45 278,77 -28,37 -42,82 -42,137 0,106 95,205 284,296 14,7 26,13 34,17 165,80 279,159 340,235 62,77 92,172 92,287 0,167 -50,299 -150,397 -100,98 -235,147 -405,147 -142,0 -259,-35 -350,-103 -91,-69 -151,-167 -179,-296l217 -105c21,78 59,138 114,179 55,41 125,62 210,62 81,0 145,-24 193,-71 48,-47 71,-110 71,-190 0,-103 -82,-196 -245,-277 -23,-12 -41,-21 -53,-26 -184,-95 -307,-180 -369,-257 -61,-77 -92,-170 -92,-281 0,-86 17,-162 50,-229zm-1905 651c63,-70 130,-136 201,-198l241 1093 -253 0 -185 -869c-1,-5 -3,-14 -4,-26zm659 -497c87,-42 178,-77 271,-106l0 422 662 0 0 251 -662 0 0 569 662 0 0 256 -934 0 0 -1392z"/>
   <g style="clip-path:url(#id0)">
    <image x="17431" y="9227" width="3160" height="2181" xlink:href="HUITZIL 1_Images\HUITZIL 1_ImgID1.png"/>
   </g>
  </g>
 </g>
</svg>
